<svg xmlns="http://www.w3.org/2000/svg" viewBox="0 0 96 96" role="img" aria-labelledby="title">
  <title>Banco de Portugal</title>
  <defs>
    <linearGradient id="ring" x1="0%" y1="0%" x2="100%" y2="100%">
      <stop offset="0%" stop-color="#fbbf24" />
      <stop offset="100%" stop-color="#92400e" />
    </linearGradient>
  </defs>
  <rect width="96" height="96" rx="24" fill="#fffdf5" />
  <circle cx="48" cy="48" r="34" fill="none" stroke="url(#ring)" stroke-width="6" />
  <path d="M31 26h17.5c10 0 16.5 5.9 16.5 14.5 0 5.9-3 10.2-8.1 12.4 4.4 2.1 7 6 7 11.1 0 9.4-7.3 16-18.1 16H31V26zm14.7 21.5c5 0 7.9-2.1 7.9-5.8 0-3.6-2.9-5.7-7.9-5.7H41.8v11.5h3.9zm1.3 22.5c5.5 0 8.8-2.3 8.8-6.4s-3.3-6.4-8.8-6.4h-5.2V70h5.2z" fill="#8a5b00"/>
  <path d="M66.5 63.5v16.5h-8V44.5h8v5.3c2.3-3.9 6-6.1 10.5-6.1 8.8 0 14.7 7 14.7 18.3 0 11.2-6 18.4-14.9 18.4-4.2 0-7.5-1.8-10.3-5.4zm0-8.9c1.8 3.6 4.7 5.5 8.4 5.5 5.4 0 8.9-4.1 8.9-10.6 0-6.4-3.5-10.3-8.9-10.3-3.7 0-6.6 1.9-8.4 5.4v10z" transform="translate(-8 -6)" fill="#0f172a"/>
</svg>
