<?xml version="1.0" encoding="UTF-8" standalone="no"?>
<!-- Generator: Adobe Illustrator 22.0.1, SVG Export Plug-In . SVG Version: 6.00 Build 0)  -->

<svg
   version="1.1"
   id="Layer_1"
   x="0px"
   y="0px"
   viewBox="300 0 100 69.648003"
   xml:space="preserve"
   sodipodi:docname="شعار هيئة السوق المالية – SVG.svg"
   width="100"
   height="69.648003"
   inkscape:version="1.3.2 (091e20e, 2023-11-25, custom)"
   xmlns:inkscape="http://www.inkscape.org/namespaces/inkscape"
   xmlns:sodipodi="http://sodipodi.sourceforge.net/DTD/sodipodi-0.dtd"
   xmlns:xlink="http://www.w3.org/1999/xlink"
   xmlns="http://www.w3.org/2000/svg"
   xmlns:svg="http://www.w3.org/2000/svg"><defs
   id="defs44" /><sodipodi:namedview
   id="namedview44"
   pagecolor="#ffffff"
   bordercolor="#999999"
   borderopacity="1"
   inkscape:showpageshadow="2"
   inkscape:pageopacity="0"
   inkscape:pagecheckerboard="0"
   inkscape:deskcolor="#d1d1d1"
   inkscape:zoom="0.674"
   inkscape:cx="397.62611"
   inkscape:cy="69.732938"
   inkscape:window-width="1500"
   inkscape:window-height="912"
   inkscape:window-x="-8"
   inkscape:window-y="-8"
   inkscape:window-maximized="1"
   inkscape:current-layer="Layer_1" />
<style
   type="text/css"
   id="style1">
	.st0{fill:#AAACAF;}
	.st1{fill:#363434;}
	.st2{clip-path:url(#SVGID_2_);fill:url(#SVGID_3_);}
	.st3{fill:#90D2F4;}
	.st4{fill:#2970AD;}
	.st5{clip-path:url(#SVGID_5_);fill:url(#SVGID_6_);}
</style>
<g
   id="g44"
   transform="matrix(0.50106476,0,0,0.50106476,-51.058499,-215.75849)">
	<g
   id="g43">
		<g
   id="g38">
			<path
   class="st0"
   d="m 126.6,479.5 c -1.9,1.7 -3.7,3.7 -5.4,5.7 1.8,0.4 3.5,0.6 5.4,0.6 1.9,0 3.7,-0.2 5.4,-0.6 -1.6,-2.1 -3.4,-4 -5.4,-5.7 M 103.5,468 c 1.9,7.1 7,13 13.7,15.9 2,-2.4 4.2,-4.7 6.6,-6.7 -5.8,-4.6 -12.8,-7.8 -20.3,-9.2 m 32.5,15.9 c 6.7,-2.8 11.8,-8.7 13.7,-15.9 -7.4,1.4 -14.4,4.6 -20.4,9.2 2.5,2 4.7,4.2 6.7,6.7 m -9.4,-45.8 c -13.2,0 -23.8,10.7 -23.8,23.9 0,1.4 0.1,2.9 0.4,4.2 8.5,0.9 16.6,4 23.4,8.9 6.9,-4.9 14.9,-8 23.5,-8.9 0.3,-1.4 0.4,-2.8 0.4,-4.2 0,-13.2 -10.7,-23.9 -23.9,-23.9 m 14,20.4 c 0,0.5 -0.1,1 -0.1,1.5 -0.5,-4.1 -2.7,-7.7 -6,-10 2.9,5.3 2.1,12 -2.4,16.5 -0.4,0.4 -0.8,0.7 -1.2,1 4.4,-5.5 4.1,-13.5 -1,-18.6 -0.5,-0.5 -0.9,-0.9 -1.4,-1.3 -0.1,0 -0.3,0 -0.3,0 v 22 c 0,0.9 -0.7,1.6 -1.6,1.6 -0.9,0 -1.5,-0.7 -1.5,-1.6 v 0 -22 c -0.1,0 -0.3,0 -0.4,0 -0.5,0.4 -1,0.8 -1.4,1.3 -5.1,5.1 -5.5,13.1 -1,18.6 -0.4,-0.3 -0.8,-0.7 -1.1,-1 -4.5,-4.5 -5.3,-11.2 -2.4,-16.5 -3.3,2.2 -5.5,5.8 -6,10 -0.1,-0.5 -0.1,-1 -0.1,-1.5 0,-6.3 4.2,-11.7 10,-13.4 -3.9,-0.7 -8.1,0.2 -11.3,2.8 0.3,-0.4 0.7,-0.8 1,-1.1 3.9,-3.9 9.4,-5 14.3,-3.4 4.9,-1.6 10.4,-0.5 14.3,3.4 0.3,0.4 0.7,0.8 1,1.1 -3.3,-2.6 -7.4,-3.6 -11.3,-2.8 5.7,1.7 9.9,7 9.9,13.4"
   id="path1" />
			<path
   class="st1"
   d="m 204.9,476.3 c -0.6,1.4 -1.4,2.7 -2.4,3.9 -1.8,1.9 -4.5,3.8 -9.1,3.8 -7.1,0 -12.5,-7.9 -12.5,-16.7 0,-8.2 5.5,-16.4 14.2,-16.4 5.4,0 8.8,3.7 9.9,3.7 1.3,0 1.5,-2.1 2,-2.9 h 1.9 c -0.3,1.6 -0.3,3.5 -0.3,5 v 19.2 c 0,2.1 0.3,6 4.7,6.3 h 7.4 v 1.8 h -5.3 c -5.3,0 -9.5,-0.7 -10.5,-7.7 M 195,452.7 c -6.4,0 -9.4,7.2 -9.4,15 0,11.1 5.3,14.4 8.7,14.4 4.1,0 7.6,-2.8 8.9,-6.9 0.7,-2.4 0.9,-5 0.9,-9 0,-6.3 -1,-13.5 -9.1,-13.5 m -3.5,-9.5 c -1.5,0 -2.7,-1.1 -2.7,-2.6 0,-1.6 1.1,-2.8 2.7,-2.8 1.6,0 2.7,1.2 2.7,2.8 0,1.6 -1.1,2.6 -2.7,2.6 m 9.5,0 c -1.6,0 -2.7,-1.1 -2.7,-2.6 0,-1.6 1.1,-2.8 2.7,-2.8 1.5,0 2.7,1.2 2.7,2.8 0,1.6 -1.1,2.6 -2.7,2.6"
   id="path2" />
			<path
   class="st1"
   d="m 219.7,496.8 c -1.5,0 -2.7,-1.1 -2.7,-2.7 0,-1.5 1.2,-2.7 2.7,-2.7 1.6,0 2.7,1.2 2.7,2.7 0,1.6 -1.1,2.7 -2.7,2.7 M 243.9,484 c -5.1,0 -8.3,-2.1 -10.7,-7 -0.9,4.5 -4.5,7 -9.6,7 h -4.4 v -1.8 h 3.1 c 4.6,-0.1 6.5,-2.8 6.5,-7.4 v -18.5 c 0,-1.8 -0.1,-2.1 -2.5,-2.8 l 7.1,-1.5 v 18.3 c 0,4.8 3.2,11.9 8.9,11.9 h 2.2 v 1.8 z m -14.6,12.8 c -1.6,0 -2.7,-1.1 -2.7,-2.7 0,-1.5 1.2,-2.7 2.7,-2.7 1.5,0 2.7,1.2 2.7,2.7 0,1.6 -1.2,2.7 -2.7,2.7"
   id="path3" />
			<path
   class="st1"
   d="m 243.2,482.2 h 0.7 c 4.8,0 6.8,-2.8 6.8,-7.4 v -32.3 c 0,-1.8 -0.1,-2.5 -2.5,-3.2 l 7.1,-1.5 v 37 c 0,6 -3.9,9.3 -9.8,9.3 h -2.2 v -1.9 z"
   id="path4" />
			<path
   class="st1"
   d="m 267.9,475.2 v -32.4 c 0,-2 -1.1,-2.8 -5.3,-2.8 v -1.9 l 9.9,-0.4 v 37.8 c 0,4.1 2.1,6.3 5.7,6.6 h 3 v 1.8 h -3.3 c -5.8,0.1 -10,-2 -10,-8.7"
   id="path5" />
			<path
   class="st1"
   d="m 325.6,484 c -5.1,0 -7.8,-2.1 -10.4,-6.2 -1.7,5.1 -6.3,9.4 -13.7,9.4 -6.4,0 -9.6,-3.8 -11.7,-6.8 l -0.3,-0.3 c -1.8,2.4 -3.6,3.9 -7.6,3.9 h -2.1 v -1.8 h 2.2 c 0.5,-0.1 2.4,-0.4 3.4,-1.4 7.2,-6.7 2,-23.7 18,-23.7 8.3,0 12.8,8.7 12.8,15.4 0,0.9 -0.1,1.8 -0.2,2.6 1.2,3.7 4.1,7.1 8.1,7.1 h 1.6 c 4.8,0 6.8,-2.8 6.8,-7.4 v -32.3 c 0,-1.8 -0.1,-2.5 -2.6,-3.2 l 7.1,-1.5 v 37 c 0,6 -3.9,9.3 -9.8,9.3 h -1.6 z m -23.4,-25.3 c -8.4,0 -7.5,12.2 -11.5,19.7 0.3,0.2 0.5,0.4 0.6,0.6 2,2.3 5.2,6.3 10.6,6.3 5.1,0 9.5,-5.6 9.5,-12.5 0,-7.2 -3,-13.9 -9,-14.1 z"
   id="path6" />
			<path
   class="st1"
   d="m 347.5,442.4 c 0,-1.8 -0.1,-2.5 -2.6,-3.2 l 7.1,-1.5 V 484 h -4.5 z"
   id="path7" />
			<path
   class="st1"
   d="m 413.6,472.8 c 0,11.7 -6.9,24 -20.5,24 -13.7,0 -20.6,-12.2 -20.6,-24 v -10.3 c 0,-1.9 -1.1,-2.7 -5.3,-2.7 v -1.9 l 9.9,-0.4 v 15.3 c 0,17.3 8,22 16,22 6.9,0 13.9,-3.6 15.5,-16 -1.9,3.2 -4.7,5.2 -9.9,5.2 -4.6,0 -10.3,-4.3 -10.3,-11.1 0,-12.7 8.6,-20.8 20.6,-20.8 h 4.6 z M 409.1,454 c -0.6,-0.2 -1.2,-0.2 -1.7,-0.2 -7,0 -14.4,7.4 -14.4,18.6 0,4.4 2.5,9.8 7.3,10 5,0 8.8,-5.5 8.8,-11.4 z m -7.6,-10 c -1.5,0 -2.6,-1.1 -2.6,-2.6 0,-1.6 1.1,-2.7 2.6,-2.7 1.6,0 2.8,1.2 2.8,2.7 0,1.5 -1.2,2.6 -2.8,2.6 m 9.6,0 c -1.6,0 -2.7,-1.1 -2.7,-2.6 0,-1.6 1.1,-2.7 2.7,-2.7 1.5,0 2.6,1.2 2.6,2.7 0,1.5 -1.1,2.6 -2.6,2.6"
   id="path8" />
			<path
   class="st1"
   d="M 457.3,484 H 447 c -2.4,11 -10.4,13.6 -16.3,13.6 -1,0 -2,-0.1 -4.7,-0.3 6.5,-1.4 13.9,-3.4 16.3,-13.3 h -9.6 c -4.5,0 -10.4,-4.3 -10.4,-11.1 0,-12.7 8.6,-20.8 20.6,-20.8 h 4.7 v 25.8 c 0,1.6 -0.2,3 -0.4,4.3 h 10 v 1.8 z m -14.2,-5.9 V 454 c -0.6,-0.2 -1.2,-0.2 -1.7,-0.2 -6.9,0 -14.4,7.4 -14.4,18.6 0,4.5 2.5,9.5 7.4,9.7 h 8.3 c 0.2,-1.2 0.3,-2.5 0.4,-4"
   id="path9" />
			<path
   class="st1"
   d="m 455.9,482.2 h 0.7 c 4.8,0 6.7,-2.8 6.7,-7.4 v -13.1 c 0,-1.8 -0.1,-2.1 -2.5,-2.8 l 7.1,-1.4 v 12.9 c 0,4.7 3.2,11.9 8.8,11.9 4.9,0 6.8,-2.8 6.8,-7.4 V 459 c 0,-1.9 0,-2.1 -2.6,-2.9 l 7.1,-1.4 v 15.5 c 0,4.8 3.3,11.9 8.9,11.9 4.9,0 6.9,-2.8 6.9,-7.4 v -18.5 c 0,-1.8 -0.1,-2.1 -2.6,-2.8 l 7.1,-1.5 v 18.3 c 0,4.8 3.3,11.9 8.9,11.9 h 2.2 v 1.8 h -0.7 c -5.1,0 -8.2,-2.2 -10.7,-7 -0.8,4.5 -4.5,7 -9.5,7 -5.1,0 -8.1,-2 -10.7,-7 -0.9,4.5 -4.5,7 -9.4,7 -5.1,0 -7.9,-2.1 -10.4,-6.3 l -0.2,-0.3 c -1,4.3 -4.6,6.7 -9.6,6.7 h -2.3 z"
   id="path10" />
			<path
   class="st1"
   d="m 518.2,482.2 h 0.6 c 4.8,0 6.8,-2.8 6.8,-7.4 v -32.3 c 0,-1.8 -0.1,-2.5 -2.5,-3.2 l 7.1,-1.5 v 37 c 0,6 -4,9.3 -9.9,9.3 h -2.2 v -1.9 z"
   id="path11" />
			<path
   class="st1"
   d="m 540.9,442.4 c 0,-1.8 -0.1,-2.5 -2.6,-3.2 l 7.1,-1.5 V 484 h -4.5 z"
   id="path12" />
			<path
   class="st1"
   d="m 589.9,476.3 c -0.6,1.4 -1.4,2.7 -2.4,3.9 -1.8,1.9 -4.5,3.8 -9,3.8 -7.2,0 -12.5,-7.9 -12.5,-16.7 0,-8.2 5.5,-16.4 14.2,-16.4 5.4,0 8.9,3.7 9.9,3.7 1.3,0 1.5,-2.1 2,-2.9 h 1.9 c -0.3,1.6 -0.3,3.5 -0.3,5 v 19.2 c 0,2.1 0.3,6 4.7,6.3 h 7.3 v 1.8 h -5.3 c -5.2,0 -9.4,-0.7 -10.5,-7.7 m -9.8,-23.6 c -6.3,0 -9.4,7.2 -9.4,15 0,11.1 5.3,14.4 8.7,14.4 4.1,0 7.6,-2.8 8.9,-6.9 0.7,-2.4 0.9,-5 0.9,-9 0,-6.3 -1,-13.5 -9.1,-13.5 m -3.5,-9.5 c -1.5,0 -2.7,-1.1 -2.7,-2.6 0,-1.6 1.2,-2.8 2.7,-2.8 1.5,0 2.7,1.2 2.7,2.8 0,1.6 -1.2,2.6 -2.7,2.6 m 9.6,0 c -1.6,0 -2.8,-1.1 -2.8,-2.6 0,-1.6 1.2,-2.8 2.8,-2.8 1.5,0 2.6,1.2 2.6,2.8 0,1.6 -1.2,2.6 -2.6,2.6"
   id="path13" />
			<path
   class="st1"
   d="m 628.9,484 c -5.1,0 -8.3,-2.1 -10.6,-7 -0.8,4.5 -4.5,7 -9.6,7 h -4.5 v -1.8 h 3.2 c 4.6,-0.1 6.5,-2.8 6.5,-7.4 v -18.5 c 0,-1.8 -0.1,-2.1 -2.5,-2.8 l 7.1,-1.5 v 18.3 c 0,4.8 3.2,11.9 8.9,11.9 h 2.2 v 1.8 z m -9.2,-40.7 v -1.6 h -2.5 c -3.5,0 -5.3,-3.7 -5.3,-6 0,-1.6 0.9,-3.3 2.8,-3.3 0.9,0 1.7,0.1 2,0.9 -0.4,0.3 -0.9,1 -0.9,1.6 0,0.8 0.7,1.5 1.5,1.5 0.8,0 1.4,-0.4 1.4,-1.8 0,-2.1 -1.7,-3.6 -3.9,-3.6 -3.2,0 -5.2,2.6 -5.2,5.6 0,2.3 1.7,4.2 3.2,5.1 H 609 l -0.6,1.6 z"
   id="path14" />
			<path
   class="st1"
   d="m 628.9,496.8 c -1.5,0 -2.7,-1.1 -2.7,-2.7 0,-1.5 1.2,-2.7 2.7,-2.7 1.6,0 2.7,1.2 2.7,2.7 -0.1,1.6 -1.2,2.7 -2.7,2.7 M 653,484 c -5.1,0 -8.3,-2.1 -10.7,-7 -0.8,4.5 -4.5,7 -9.6,7 h -4.5 v -1.8 h 3.2 c 4.6,-0.1 6.5,-2.8 6.5,-7.4 v -18.5 c 0,-1.8 -0.1,-2.1 -2.5,-2.8 l 7.1,-1.5 v 18.3 c 0,4.8 3.2,11.9 8.9,11.9 h 2.2 v 1.8 z m -14.6,12.8 c -1.6,0 -2.8,-1.1 -2.8,-2.7 0,-1.5 1.1,-2.7 2.8,-2.7 1.5,0 2.7,1.2 2.7,2.7 0,1.6 -1.2,2.7 -2.7,2.7"
   id="path15" />
			<path
   class="st1"
   d="m 692.4,484 h -40.1 v -1.8 h 6 c 0.1,-0.6 0.2,-1.1 0.3,-1.6 0.1,-1 0.3,-1.9 0.5,-2.8 1.3,-6.2 5.3,-11.8 12.1,-11.8 5.9,0 9.2,4.1 9.2,8.4 0,3.1 -1.9,6.3 -6.2,7.8 H 687 c 0,-17.1 -7.1,-25.7 -13.5,-25.7 -8.4,0 -10.9,4.9 -12.1,11.9 h -0.8 c 0.1,-10.1 6.3,-13.7 12.9,-13.7 h 0.1 c 10.9,0 19,14.1 19,27.6 v 1.7 z m -32.5,-1.8 h 3.9 c 5.3,0 12.3,-2.3 12.3,-9 0,-3.4 -2.9,-5.2 -5.8,-5.2 -4.2,0 -8.5,4 -9.6,9.4 z"
   id="path16" />
			<path
   class="st1"
   d="m 133.9,532.5 h -1.7 c -1.2,-6.3 -4.6,-13.6 -12.2,-13.6 -5.9,0 -12.6,4.3 -12.6,19.7 0,15.4 5.8,19.7 12.9,19.7 7.8,0 12.2,-6.2 12.5,-15 h 2 c 0,10.2 -5.4,16.7 -14.5,16.7 -12.2,0 -18.4,-11 -18.4,-21.4 0,-12.2 8.4,-21.4 18.4,-21.4 5.8,0 8.7,3.9 10,3.9 1.1,0 1.6,-1.8 1.9,-2.5 h 1.7 z"
   id="path17" />
			<path
   class="st1"
   d="m 157.4,539.1 v 16 c 0,1.8 0.7,2.2 1.6,2.2 1.2,0 1.9,-1.1 1.9,-4.7 h 1.7 c 0,4 -1.1,6.7 -4.9,6.7 -2.8,0 -4.1,-1.8 -4.2,-5.2 h -0.1 c -1.7,3.3 -4.8,5.9 -9.2,5.9 -3.9,0 -8.1,-2.4 -8.1,-7 0,-7.6 11.8,-9.7 17.3,-11.2 v -4.3 c 0,-3.4 -1.8,-5.6 -6.1,-5.6 -2.5,0 -5.1,0.9 -6.7,2.2 l 0.1,0.1 c 1.2,0 2.5,0.9 2.5,2.6 0,1.4 -1,2.9 -2.8,2.9 -1.7,0 -2.7,-1.3 -2.7,-3.4 0,-3.3 4.1,-6.1 9.5,-6.1 6.5,0.2 10.2,2.3 10.2,8.9 m -4.1,4.4 c -5.5,1.2 -12.7,2.9 -12.7,10 0,2.8 2.5,4.6 4.9,4.6 4.3,0 7.8,-4.7 7.8,-10.2 z"
   id="path18" />
			<path
   class="st1"
   d="m 166.3,535.2 c 0,-1.8 -1,-2.4 -4.8,-2.4 v -1.7 l 8.8,-0.4 v 5.3 h 0.1 c 2,-2.8 3.4,-5.7 8.8,-5.7 7.2,0 12.1,7.3 12.1,14.9 0,7.5 -4.9,14.9 -13.1,14.9 -3.3,0 -6,-1.3 -7.8,-3.8 h -0.1 v 9.2 c 0,1.8 1,2.4 4.9,2.4 v 1.7 H 161 v -1.7 c 4.2,0 5.2,-0.6 5.2,-2.4 v -30.3 z m 4.1,10 c 0,10.3 2.1,13.2 8.3,13.2 4.4,0 8.3,-3.7 8.3,-13.2 0,-9.4 -3.9,-13.2 -8.3,-13.2 -4.5,0 -8.3,3.8 -8.3,13.2"
   id="path19" />
			<path
   class="st1"
   d="m 207.3,559.3 h -14.2 v -1.7 c 4.2,0 5.2,-0.6 5.2,-2.4 v -20.1 c 0,-1.8 -1,-2.4 -4.8,-2.4 V 531 l 8.9,-0.4 v 24.5 c 0,1.8 1,2.4 4.9,2.4 z m -4.6,-38 c 0,1.6 -1.2,2.8 -2.9,2.8 -1.6,0 -2.9,-1.2 -2.9,-2.8 0,-1.6 1.3,-2.9 2.9,-2.9 1.6,-0.1 2.9,1.2 2.9,2.9"
   id="path20" />
			<path
   class="st1"
   d="m 224.9,530.4 v 1.7 h -9 v 21.3 c 0,3.7 1.8,5 3.9,5 1.8,0 4.4,-1.3 4.4,-6.1 v -2.6 h 1.7 v 2.2 c 0,4.8 -2.2,8.2 -7.1,8.2 -4.4,0 -6.9,-2.4 -6.9,-7 V 532 h -4.5 v -1.7 c 5,0 6.5,-4.9 6.9,-9 h 1.7 v 9 h 8.9 z"
   id="path21" />
			<path
   class="st1"
   d="m 249.3,539.1 v 16 c 0,1.8 0.7,2.2 1.6,2.2 1.1,0 1.8,-1.1 1.8,-4.7 h 1.7 c 0,4 -1.1,6.7 -4.9,6.7 -2.8,0 -4.1,-1.8 -4.2,-5.2 h -0.1 c -1.7,3.3 -4.8,5.9 -9.2,5.9 -3.9,0 -8.1,-2.4 -8.1,-7 0,-7.6 11.8,-9.7 17.3,-11.2 v -4.3 c 0,-3.4 -1.8,-5.6 -6.1,-5.6 -2.5,0 -5.1,0.9 -6.7,2.2 l 0.1,0.1 c 1.2,0 2.5,0.9 2.5,2.6 0,1.4 -1,2.9 -2.8,2.9 -1.7,0 -2.7,-1.3 -2.7,-3.4 0,-3.3 4.1,-6.1 9.5,-6.1 6.5,0.2 10.3,2.3 10.3,8.9 m -4.1,4.4 c -5.5,1.2 -12.7,2.9 -12.7,10 0,2.8 2.5,4.6 4.9,4.6 4.3,0 7.8,-4.7 7.8,-10.2 z"
   id="path22" />
			<path
   class="st1"
   d="m 263.9,555.2 c 0,1.8 1,2.4 4.9,2.4 v 1.7 h -14.2 v -1.7 c 4.2,0 5.2,-0.6 5.2,-2.4 v -32.9 c 0,-1.8 -1,-2.4 -4.7,-2.4 v -1.7 l 8.8,-0.2 z"
   id="path23" />
			<path
   class="st1"
   d="m 285.4,518 h 11.7 l 10.8,33.3 h 0.2 L 319.5,518 h 11.2 v 1.7 c -4.7,0 -5.5,0.3 -5.5,4.1 v 29.7 c 0,3.8 0.8,4.1 5.6,4.1 v 1.7 H 315 v -1.7 c 5,0 5.7,-0.3 5.7,-4.1 v -32.4 h -0.1 l -13.3,38.2 h -1.4 l -12.7,-38.2 h -0.1 v 32.2 c 0,3 1.4,4.2 5.7,4.3 v 1.7 h -13.4 v -1.7 c 4.2,-0.1 5.6,-1.4 5.6,-4.3 v -29.5 c 0,-3.8 -0.8,-4.1 -5.6,-4.1 z"
   id="path24" />
			<path
   class="st1"
   d="m 353.7,539.1 v 16 c 0,1.8 0.7,2.2 1.6,2.2 1.1,0 1.9,-1.1 1.9,-4.7 h 1.7 c 0,4 -1.1,6.7 -4.9,6.7 -2.8,0 -4.1,-1.8 -4.2,-5.2 h -0.1 c -1.7,3.3 -4.8,5.9 -9.2,5.9 -3.9,0 -8.1,-2.4 -8.1,-7 0,-7.6 11.8,-9.7 17.3,-11.2 v -4.3 c 0,-3.4 -1.8,-5.6 -6.1,-5.6 -2.5,0 -5.1,0.9 -6.7,2.2 l 0.1,0.1 c 1.2,0 2.5,0.9 2.5,2.6 0,1.4 -1,2.9 -2.8,2.9 -1.7,0 -2.7,-1.3 -2.7,-3.4 0,-3.3 4.1,-6.1 9.5,-6.1 6.5,0.2 10.2,2.3 10.2,8.9 m -4.1,4.4 c -5.5,1.2 -12.8,2.9 -12.8,10 0,2.8 2.5,4.6 4.9,4.6 4.3,0 7.8,-4.7 7.8,-10.2 v -4.4 z"
   id="path25" />
			<path
   class="st1"
   d="m 364,535.2 c 0,-1.8 -1,-2.4 -4.8,-2.4 v -1.7 l 8.8,-0.4 v 7.2 h 0.2 c 1.3,-3.5 3.5,-7.6 7.8,-7.6 2.4,0 4.6,1.5 4.6,4.1 0,1.8 -1.1,2.9 -2.8,2.9 -1.6,0 -2.8,-0.9 -2.8,-2.7 0,-1.1 0.5,-1.9 1.4,-2.4 -0.2,-0.2 -0.5,-0.3 -0.9,-0.3 -1.6,0 -5.2,1.8 -6.8,8.7 -0.8,3.8 -0.8,9.4 -0.8,13.3 0,3 1,3.6 5.4,3.6 v 1.7 H 359 v -1.7 c 3.9,0 4.8,-0.6 4.8,-2.4 v -19.9 z"
   id="path26" />
			<path
   class="st1"
   d="m 409.6,531.1 v 1.7 c -4.5,0.4 -6.2,1.8 -13.7,9.3 l 7.8,11.9 c 2.3,3.6 3,3.7 6.4,3.7 v 1.7 h -7.4 l -9.7,-14.7 -2.8,2.5 v 8.1 c 0,1.8 1,2.4 4.9,2.4 v 1.7 h -14.2 v -1.7 c 4.2,0 5.2,-0.6 5.2,-2.4 v -32.9 c 0,-1.8 -1,-2.4 -4.8,-2.4 v -1.7 l 8.8,-0.2 v 27.1 l 9.2,-8.4 c 1,-1 1.9,-1.8 1.9,-2.8 0,-1 -1.1,-1.2 -4.6,-1.2 v -1.7 z"
   id="path27" />
			<path
   class="st1"
   d="m 414.7,544.5 v 1.7 c 0,6.8 3.3,12.1 9.2,12.1 5.2,0 7.3,-2.4 9.6,-5.8 l 1.5,1 c -3.6,5.3 -6.4,6.5 -11.5,6.5 -8.2,0 -13.3,-7.4 -13.3,-14.9 0,-8.8 4.9,-14.9 13,-14.9 7.5,0 11.8,7.1 11.8,14.2 h -20.3 z m 15.7,-1.7 c 0,-4.9 -1.5,-10.8 -7.6,-10.8 -5.5,0 -8,5.6 -8,10.8 z"
   id="path28" />
			<path
   class="st1"
   d="m 452.4,530.4 v 1.7 h -9 v 21.3 c 0,3.7 1.8,5 3.9,5 1.8,0 4.4,-1.3 4.4,-6.1 v -2.6 h 1.7 v 2.2 c 0,4.8 -2.2,8.2 -7.2,8.2 -4.4,0 -6.9,-2.4 -6.9,-7 V 532 h -4.5 v -1.7 c 5.1,0 6.5,-4.9 6.8,-9 h 1.7 v 9 h 9.1 z"
   id="path29" />
			<path
   class="st1"
   d="m 465.6,559.3 v -1.7 c 3.9,0 5.2,-0.5 6,-2.6 l 13.8,-37 h 1.5 l 13.8,37.4 c 0.7,1.9 2.1,2.3 5.2,2.3 v 1.7 h -15.3 v -1.7 c 4.5,0 5.3,-0.5 5.3,-1.7 0,-1.7 -3,-8.7 -3.6,-10.7 h -15 c -0.3,1 -3.4,9 -3.4,10.8 0,1.4 1.3,1.6 5.4,1.6 v 1.7 h -13.7 z m 12.5,-16.1 h 13.6 L 485,524.7 Z"
   id="path30" />
			<path
   class="st1"
   d="m 529.3,555.2 c 0,1.8 0.9,2.4 4.5,2.4 v 1.7 l -8.6,0.3 v -4.5 h -0.1 c -2.1,3 -4.3,4.8 -9,4.8 -5.2,0 -9,-1.9 -9,-7.9 v -17 c 0,-1.8 -1,-2.4 -4.7,-2.4 v -1.7 l 8.8,-0.4 v 21.8 c 0,3.8 2.1,5.8 5.7,5.8 5,0 8.4,-4.1 8.4,-10.8 v -12.4 c 0,-1.8 -1,-2.4 -4.8,-2.4 v -1.7 l 8.9,-0.4 v 24.8 z"
   id="path31" />
			<path
   class="st1"
   d="m 550,530.4 v 1.7 h -9 v 21.3 c 0,3.7 1.8,5 3.9,5 1.7,0 4.4,-1.3 4.4,-6.1 v -2.6 h 1.7 v 2.2 c 0,4.8 -2.2,8.2 -7.1,8.2 -4.4,0 -6.9,-2.4 -6.9,-7 V 532 h -4.4 v -1.7 c 5,0 6.5,-4.9 6.8,-9 h 1.7 v 9 h 8.9 z"
   id="path32" />
			<path
   class="st1"
   d="m 575.3,559.3 v -19.5 c 0,-3.1 0,-7.8 -5.5,-7.8 -4.7,0 -8.5,4.6 -8.5,12.5 v 10.7 c 0,1.8 1,2.4 4.8,2.4 v 1.7 h -14 v -1.7 c 4.2,0 5.1,-0.6 5.1,-2.4 v -32.9 c 0,-1.8 -1,-2.4 -4.8,-2.4 v -1.7 l 8.8,-0.2 v 18 h 0.1 c 2.1,-3.8 4.7,-5.6 9.4,-5.6 5.3,0 8.7,2.6 8.7,8.9 v 16 c 0,1.8 0.7,2.4 4.7,2.4 v 1.7 h -8.8 z"
   id="path33" />
			<path
   class="st1"
   d="m 583.7,545.2 c 0,-7.5 4.9,-14.9 13,-14.9 8.2,0 13,7.3 13,14.9 0,7.5 -4.8,14.9 -13,14.9 -8.1,0 -13,-7.4 -13,-14.9 m 21.5,0 c 0,-8.5 -2.7,-13.2 -8.5,-13.2 -5.8,0 -8.5,4.7 -8.5,13.2 0,8.5 2.7,13.2 8.5,13.2 5.9,0 8.5,-4.7 8.5,-13.2"
   id="path34" />
			<path
   class="st1"
   d="m 614,535.2 c 0,-1.8 -1,-2.4 -4.8,-2.4 v -1.7 l 8.9,-0.4 v 7.2 h 0.1 c 1.4,-3.5 3.5,-7.6 7.9,-7.6 2.4,0 4.6,1.5 4.6,4.1 0,1.8 -1.1,2.9 -2.8,2.9 -1.6,0 -2.8,-0.9 -2.8,-2.7 0,-1.1 0.5,-1.9 1.4,-2.4 -0.2,-0.2 -0.5,-0.3 -0.9,-0.3 -1.6,0 -5.2,1.8 -6.8,8.7 -0.8,3.8 -0.8,9.4 -0.8,13.3 0,3 0.9,3.6 5.4,3.6 v 1.7 h -14.3 v -1.7 c 3.8,0 4.8,-0.6 4.8,-2.4 v -19.9 z"
   id="path35" />
			<path
   class="st1"
   d="m 646.3,559.3 h -14.2 v -1.7 c 4.2,0 5.2,-0.6 5.2,-2.4 v -20.1 c 0,-1.8 -1,-2.4 -4.7,-2.4 V 531 l 8.8,-0.4 v 24.5 c 0,1.8 0.9,2.4 4.9,2.4 z m -4.6,-38 c 0,1.6 -1.3,2.8 -2.9,2.8 -1.6,0 -2.9,-1.2 -2.9,-2.8 0,-1.6 1.3,-2.9 2.9,-2.9 1.6,-0.1 2.9,1.2 2.9,2.9"
   id="path36" />
			<path
   class="st1"
   d="m 662.7,530.7 v 1.7 h -9 v 21.4 c 0,3.7 1.8,5 3.9,5 1.8,0 4.4,-1.3 4.4,-6.1 V 550 h 1.7 v 2.2 c 0,4.8 -2.2,8.2 -7.2,8.2 -4.4,0 -6.9,-2.4 -6.9,-7 v -21.1 h -4.5 v -1.7 c 5,0 6.5,-4.9 6.8,-9 h 1.7 v 9 h 9.1 z"
   id="path37" />
			<path
   class="st1"
   d="m 662.1,530.7 h 13.5 v 1.7 c -4.4,0 -4.9,0.5 -4.9,1.4 0,1.5 3.5,9.5 7.5,19.3 h 0.1 c 4,-10.2 7.1,-16.8 7.1,-18.8 0,-1.4 -0.9,-1.9 -4.5,-1.9 v -1.7 h 11.4 v 1.7 c -3.1,0 -4,0.6 -5.2,3.4 l -9,22.5 c -3.3,8.3 -5.3,10.8 -9.8,10.8 -3.1,0 -5.7,-2.1 -5.7,-4.8 0,-1.9 1.4,-3.2 3,-3.2 1.5,0 2.7,1 2.7,2.3 0,1.8 -1,2.8 -2.8,2.9 0.4,0.7 1.6,1.1 3.1,1.1 3.4,0 5.9,-3.6 7.4,-9.2 l -9.4,-23.6 c -0.7,-1.9 -2.2,-2.3 -4.6,-2.3 v -1.6 z"
   id="path38" />
		</g>
		<g
   id="g39">
			<defs
   id="defs38">
				<polygon
   id="SVGID_1_"
   points="761.3,569.4 808.4,522.3 761.4,430.6 " />
			</defs>
			<clipPath
   id="SVGID_2_">
				<use
   xlink:href="#SVGID_1_"
   style="overflow:visible"
   id="use38" />
			</clipPath>

				<linearGradient
   id="SVGID_3_"
   gradientUnits="userSpaceOnUse"
   x1="93.4748"
   y1="-103.666"
   x2="95.164299"
   y2="-103.666"
   gradientTransform="matrix(27.8562,54.2665,54.2665,-27.8562,3773.5259,-7524.7578)">
				<stop
   offset="0"
   style="stop-color:#AAACAF"
   id="stop38" />
				<stop
   offset="1"
   style="stop-color:#FAFAFA"
   id="stop39" />
			</linearGradient>
			<polygon
   class="st2"
   points="705,459.6 798.6,411.5 864.8,540.5 771.2,588.5 "
   clip-path="url(#SVGID_2_)"
   id="polygon39"
   style="fill:url(#SVGID_3_)" />
		</g>
		<g
   id="g41">
			<polygon
   class="st3"
   points="853.1,477.7 900.2,430.6 761.4,430.6 "
   id="polygon40" />
			<polygon
   class="st4"
   points="808.4,522.3 761.3,569.4 900.2,569.4 "
   id="polygon41" />
		</g>
		<g
   id="g42">
			<defs
   id="defs41">
				<polygon
   id="SVGID_4_"
   points="853.1,477.7 900.2,569.4 900.2,430.6 " />
			</defs>
			<clipPath
   id="SVGID_5_">
				<use
   xlink:href="#SVGID_4_"
   style="overflow:visible"
   id="use41" />
			</clipPath>

				<linearGradient
   id="SVGID_6_"
   gradientUnits="userSpaceOnUse"
   x1="63.283298"
   y1="-86.477997"
   x2="64.972702"
   y2="-86.477997"
   gradientTransform="matrix(-27.8725,-54.2947,-54.2947,27.8725,-2021.6927,6410.8203)">
				<stop
   offset="0"
   style="stop-color:#AAACAF"
   id="stop41" />
				<stop
   offset="1"
   style="stop-color:#FAFAFA"
   id="stop42" />
			</linearGradient>
			<polygon
   class="st5"
   points="956.6,540.5 862.9,588.6 796.7,459.6 890.4,411.5 "
   clip-path="url(#SVGID_5_)"
   id="polygon42"
   style="fill:url(#SVGID_6_)" />
		</g>
	</g>
</g>
</svg>
