<svg width="48" height="48" viewBox="0 0 48 48" fill="none" xmlns="http://www.w3.org/2000/svg">
<g clip-path="url(#clip0_5718_22039)">
<path d="M48 0H0V48H48V0Z" fill="#1226AA"/>
<path d="M31.6938 28.3235H35.3944C36.7746 28.3235 37.7962 28.5898 38.4591 29.1223C39.1329 29.644 39.4698 30.3993 39.4698 31.3883C39.4698 31.9317 39.334 32.399 39.0623 32.7903C38.7906 33.1815 38.47 33.4586 38.1005 33.6217V33.6543C38.3287 33.7086 38.5732 33.8064 38.8341 33.9477C39.0949 34.089 39.334 34.2737 39.5514 34.502C39.7687 34.7302 39.948 35.0019 40.0893 35.3171C40.2306 35.6322 40.3012 35.9909 40.3012 36.393C40.3012 36.9038 40.2197 37.3711 40.0567 37.7949C39.9046 38.2188 39.6492 38.5829 39.2905 38.8872C38.9428 39.1915 38.4863 39.4306 37.9212 39.6045C37.3669 39.7675 36.6877 39.849 35.8834 39.849H31.6938V28.3235ZM35.6715 38.0884C36.4431 38.0884 37.0354 37.9743 37.4484 37.746C37.8614 37.5069 38.0679 37.0777 38.0679 36.4582C38.0679 35.8387 37.8505 35.404 37.4158 35.154C36.9811 34.8932 36.329 34.7628 35.4596 34.7628H33.9272V38.0884H35.6715ZM35.2966 33.1815C35.9486 33.1815 36.4377 33.062 36.7637 32.8229C37.0898 32.5729 37.2528 32.1708 37.2528 31.6165C37.2528 31.0188 37.0626 30.6058 36.6822 30.3776C36.3018 30.1494 35.7421 30.0352 35.0031 30.0352H33.9272V33.1815H35.2966Z" fill="white"/>
<path d="M19.7791 28.3235H22.42L27.5062 37.0288H27.5388L27.4736 35.6757V28.3235H29.7069V39.849H26.9682L21.9961 31.3231H21.9309L21.9961 32.7251V39.849H19.7791V28.3235Z" fill="white"/>
<path d="M8.15094 28.3235H11.8841C12.8622 28.3235 13.7534 28.4377 14.5576 28.6659C15.3727 28.8832 16.0682 29.2256 16.6442 29.6929C17.2311 30.1494 17.6875 30.7417 18.0136 31.4698C18.3396 32.1871 18.5026 33.0457 18.5026 34.0455C18.5026 35.0454 18.3505 35.9148 18.0462 36.6538C17.7528 37.382 17.3235 37.9851 16.7583 38.4633C16.1932 38.9306 15.5085 39.2784 14.7043 39.5066C13.9001 39.7349 12.9926 39.849 11.9819 39.849H8.15094V28.3235ZM12.1612 38.0884C13.5632 38.0884 14.5956 37.7623 15.2586 37.1103C15.9324 36.4582 16.2693 35.4909 16.2693 34.2085C16.2693 32.8174 15.8943 31.785 15.1444 31.1112C14.3946 30.4265 13.2915 30.0842 11.8352 30.0842H10.368V38.0884H12.1612Z" fill="white"/>
</g>
<defs>
<clipPath id="clip0_5718_22039">
<rect width="48" height="48" fill="white"/>
</clipPath>
</defs>
</svg>
