<svg xmlns="http://www.w3.org/2000/svg" width="212.61201" height="68.574318" viewBox="0 0 56.253597 18.143621">
  <path d="M93.846121 212.33317h55.989009v13.99752H93.846121Z" style="fill:#1226aa;fill-opacity:1;fill-rule:nonzero;stroke:none;stroke-width:.35277778" transform="translate(-93.713829 -212.20088)"/>
  <path d="M127.96136 229.45768h.77717v-.22331h-.77717v-.62583h.83538v-.22083h-1.09644v1.9244h1.15817v-.22366h-.89711zM130.56087 229.55614c0 .36936-.17251.55633-.51364.55633-.33902 0-.51118-.16651-.51118-.49495v-1.22978h-.26917v1.24813c0 .6163.48895.70802.78035.70802.23142 0 .76905-.0755.76905-.77964v-1.17651h-.25541zM131.67558 229.33787h.25012c.32702 0 .47942-.11465.47942-.36195 0-.26106-.12029-.36759-.41522-.36759h-.31432zm.92675.97402-.5267-.75918c-.0452.006-.11218.0116-.16545.0116h-.2346v.74754h-.26352v-1.9244h.63605c.40111 0 .63112.20884.63112.5722 0 .24624-.12135.4318-.3429.52635l.57574.82585zM134.12022 228.58459c.42404 0 .69744.29986.69744.76412 0 .48295-.2674.77187-.71614.77187-.31785 0-.68932-.20355-.68932-.77752 0-.46813.27093-.75847.70802-.75847m.024-.22401c-.59408 0-.99307.39617-.99307.9853 0 .60608.37006.99801.94227.99801.59831 0 .98531-.38911.98531-.99271 0-.61066-.35843-.9906-.93451-.9906M136.08212 229.1993c-.20955-.1016-.39017-.18874-.39017-.36689 0-.21343.20849-.24518.33267-.24518.17215 0 .27587.0317.38452.0706l.019.007.0759-.20108-.0183-.008c-.11183-.0476-.24554-.0917-.46637-.0917-.35102 0-.57785.18662-.57785.4759 0 .34184.27552.47025.51893.58349.21555.10019.40252.18698.40252.3937 0 .272-.33055.29281-.43145.29281-.18027 0-.3048-.0385-.43603-.0963l-.0198-.008-.0907.21308.0173.009c.11042.0579.25999.11677.53481.11677.42157 0 .68368-.20814.68368-.54292 0-.34078-.28575-.47943-.53869-.60184M137.60803 229.33681l-.47449-.94932h-.29315l.629 1.19521v.72919h.26035v-.72884l.67028-1.19556h-.28575zM139.27554 229.1993c-.20955-.1016-.39088-.18874-.39088-.36689 0-.21343.20849-.24518.33302-.24518.17251 0 .27623.0317.38418.0706l.0198.007.0759-.20108-.0187-.008c-.11183-.0476-.24553-.0917-.46601-.0917-.35137 0-.57785.18662-.57785.4759 0 .34184.27587.47025.51893.58349.21555.10019.40182.18698.40182.3937 0 .272-.32985.29281-.43075.29281-.18097 0-.30515-.0385-.43603-.0963l-.0201-.008-.0907.21308.0176.009c.10971.0579.25964.11677.5341.11677.42192 0 .68439-.20814.68439-.54292 0-.34078-.28645-.47943-.53869-.60184M140.05271 228.61655h.6417v1.69545h.26353v-1.69545h.64135v-.22895h-1.54658zM142.23443 229.45768h.77752v-.22331h-.77752v-.62583h.83608v-.22083h-1.09643v1.9244h1.15782v-.22366h-.89747zM143.82344 229.45768h.77717v-.22331h-.77717v-.62583h.83573v-.22083h-1.09679v1.9244h1.15782v-.22366h-.89676zM146.79306 228.38763l-.67733 1.71274-.60396-1.69863-.005-.0141h-.35631v1.9244h.26106v-1.36384l-.008-.14993.53058 1.51377h.34361l.60254-1.53776-.005.16969v1.36807h.2607v-1.9244z" style="fill:#1226aa;fill-opacity:1;fill-rule:nonzero;stroke:none;stroke-width:.35277778" transform="translate(-93.58153671 -212.33316919)"/>
  <g>
    <path style="fill:#efebf7;fill-opacity:1;fill-rule:nonzero;stroke:none" d="M0 0h1.879l4.478-7.903-.053 1.147V0h1.453v-9.421h-2L1.373-1.653l.053-1.052v-6.716H0Z" transform="matrix(.35278 0 0 -.35278 8.95957329 8.23895081)"/>
    <path style="fill:#efebf7;fill-opacity:1;fill-rule:nonzero;stroke:none" d="M0 0c.014 1.294-.466 2.173-1.492 2.173-1 0-1.706-.746-1.813-2.173zm-4.73-.758c0 2.944 1.465 3.944 3.398 3.944 1.945 0 2.784-1.306 2.784-3.665v-.494h-4.783c.026-1.985 1.092-2.305 2.505-2.305.52 0 1.426.187 1.879.294l.227-1.107c-.4-.132-1.32-.347-2.426-.347-2.185 0-3.584.854-3.584 3.68" transform="matrix(.35278 0 0 -.35278 14.08469329 10.05392081)"/>
    <path style="fill:#efebf7;fill-opacity:1;fill-rule:nonzero;stroke:none" d="M0 0v4.451c-.306.093-.666.199-1.293.199-1.599 0-2.212-1.279-2.212-2.732 0-1.852.813-2.571 1.906-2.571C-.986-.653-.306-.2 0 0m-4.904 1.958c0 2.533 1.626 3.812 3.597 3.812.601 0 .88-.04 1.307-.16v2.745h1.386V-1.692H0v.652c-.387-.36-.96-.773-1.786-.773-1.359 0-3.118.573-3.118 3.771" transform="matrix(.35278 0 0 -.35278 16.81180329 10.96561081)"/>
    <path style="fill:#efebf7;fill-opacity:1;fill-rule:nonzero;stroke:none" d="M0 0c.014 1.294-.466 2.173-1.492 2.173-1 0-1.706-.746-1.813-2.173zm-4.73-.758c0 2.944 1.465 3.944 3.398 3.944 1.945 0 2.785-1.306 2.785-3.665v-.494h-4.785c.027-1.985 1.093-2.305 2.506-2.305.52 0 1.426.187 1.879.294l.226-1.107c-.399-.132-1.318-.347-2.425-.347-2.186 0-3.584.854-3.584 3.68" transform="matrix(.35278 0 0 -.35278 19.61716329 10.05392081)"/>
    <path style="fill:#efebf7;fill-opacity:1;fill-rule:nonzero;stroke:none" d="M0 0h1.386v-.973C1.732-.453 2.439.16 3.412.16c.426 0 .72-.067.892-.12l-.213-1.173c-.279.067-.479.093-.892.093-.813 0-1.48-.533-1.813-1.013v-5.223H0Z" transform="matrix(.35278 0 0 -.35278 20.75702329 8.99584081)"/>
    <path style="fill:#efebf7;fill-opacity:1;fill-rule:nonzero;stroke:none;stroke-width:.35277778" d="M116.31348 220.35146h.48895v3.54436h-.48895z" transform="translate(-93.58153671 -212.33316919)"/>
    <path style="fill:#efebf7;fill-opacity:1;fill-rule:nonzero;stroke:none" d="M0 0v1.679l-1.559-.067c-1-.026-1.573-.479-1.573-1.146 0-.826.48-1.106 1.173-1.106C-1.186-.64-.28-.121 0 0m-4.491.345c0 1.8 1.626 2.186 2.892 2.201L0 2.571v.813C0 4.397-.533 4.61-1.706 4.61c-.693 0-1.492-.226-1.919-.333l-.279 1.053c.466.2 1.399.48 2.505.48 1.799 0 2.758-.56 2.758-2.052V-.053c0-.453.32-.547.667-.574l-.067-1.079c-.093-.013-.186-.013-.293-.013-.68 0-1.439.24-1.56.879-.399-.279-1.146-.907-2.398-.907-1.386 0-2.199.72-2.199 2.092" transform="matrix(.35278 0 0 -.35278 25.38620329 10.98441081)"/>
    <path style="fill:#efebf7;fill-opacity:1;fill-rule:nonzero;stroke:none" d="M0 0h1.386v-.8c.613.427 1.452.986 2.492.986 2.185 0 2.319-1.439 2.319-2.811v-4.651H4.824v4.451c0 1.185-.186 1.798-1.359 1.798-.786 0-1.559-.453-2.079-.759v-5.49H0Z" transform="matrix(.35278 0 0 -.35278 26.71081329 8.99584081)"/>
    <path style="fill:#efebf7;fill-opacity:1;fill-rule:nonzero;stroke:none" d="M0 0v4.451c-.306.093-.666.199-1.294.199-1.598 0-2.211-1.279-2.211-2.732 0-1.852.813-2.571 1.905-2.571C-.987-.653-.306-.2 0 0m-4.905 1.958c0 2.533 1.626 3.812 3.598 3.812.6 0 .88-.04 1.307-.16v2.745h1.386V-1.692H0v.652c-.387-.36-.96-.773-1.786-.773-1.359 0-3.119.573-3.119 3.771" transform="matrix(.35278 0 0 -.35278 31.24888329 10.96561081)"/>
    <path style="fill:#efebf7;fill-opacity:1;fill-rule:nonzero;stroke:none" d="m0 0 .2 1.092C.813.986 1.545.826 2.158.826c1.133 0 1.654.4 1.654.945 0 1.413-3.665.907-3.665 3.439 0 1.386 1.185 2.092 2.652 2.092.826 0 1.558-.2 1.971-.333l-.239-1.066c-.44.107-1 .266-1.773.266-.879 0-1.238-.426-1.238-.879 0-1.426 3.637-1.026 3.637-3.425 0-1.733-1.666-2.171-2.878-2.171C1.292-.306.519-.16 0 0" transform="matrix(.35278 0 0 -.35278 32.32651329 11.50624081)"/>
    <path style="fill:#efebf7;fill-opacity:1;fill-rule:nonzero;stroke:none" d="M0 0c0 2.332 1.386 3.799 3.584 3.799 1.013 0 1.639-.213 2.08-.44l-.4-1.066c-.439.186-.88.346-1.68.346-1.239 0-2.158-.853-2.158-2.625 0-1.813.547-2.652 2.546-2.652.599 0 1.066.133 1.438.186l.213-1.092c-.413-.107-.998-.253-1.758-.253C1.132-3.797 0-2.678 0 0" transform="matrix(.35278 0 0 -.35278 34.61484329 10.27017081)"/>
    <path style="fill:#efebf7;fill-opacity:1;fill-rule:nonzero;stroke:none" d="M0 0h1.386v-3.571c.493.359 1.413.986 2.492.986 2.185 0 2.305-1.44 2.305-2.799v-4.663H4.825v4.463c0 1.187-.187 1.786-1.36 1.786-.787 0-1.745-.573-2.079-.76v-5.489H0Z" transform="matrix(.35278 0 0 -.35278 37.15240329 8.01815081)"/>
    <path style="fill:#efebf7;fill-opacity:1;fill-rule:nonzero;stroke:none" d="M0 0c.014 1.294-.466 2.173-1.492 2.173-1 0-1.705-.746-1.812-2.173zm-4.731-.758c0 2.944 1.466 3.944 3.399 3.944 1.945 0 2.785-1.306 2.785-3.665v-.494h-4.784c.027-1.985 1.092-2.305 2.505-2.305.519 0 1.426.187 1.879.294l.226-1.107c-.398-.132-1.318-.347-2.424-.347-2.186 0-3.586.854-3.586 3.68" transform="matrix(.35278 0 0 -.35278 41.63413329 10.05392081)"/>
  </g>
  <g>
    <g style="fill:#aab2e3;fill-opacity:1">
      <path style="fill:#aab2e3;fill-opacity:1;fill-rule:nonzero;stroke:none" d="M0 0c2.359 0 3.651 1.173 3.651 3.439 0 2.491-1.479 3.664-3.918 3.664h-1.319V0Zm-2.999 8.263h2.772c3.106 0 5.304-1.546 5.304-4.677 0-3.292-2.012-4.744-5.224-4.744h-2.852z" transform="matrix(.35278 0 0 -.35278 3.75676729 11.15395081)"/>
    </g>
    <g style="fill:#aab2e3;fill-opacity:1">
      <path style="fill:#aab2e3;fill-opacity:1;fill-rule:nonzero;stroke:none" d="M0 0c.014 1.294-.466 2.173-1.492 2.173-1 0-1.706-.746-1.812-2.173zm-4.73-.758c0 2.944 1.465 3.944 3.398 3.944 1.945 0 2.784-1.306 2.784-3.665v-.494h-4.783c.027-1.985 1.092-2.305 2.505-2.305.52 0 1.426.187 1.879.294l.227-1.107c-.4-.132-1.32-.347-2.426-.347-2.185 0-3.584.854-3.584 3.68" transform="matrix(.35278 0 0 -.35278 7.74968329 10.05392081)"/>
    </g>
    <g style="fill:#aab2e3;fill-opacity:1">
      <path style="fill:#aab2e3;fill-opacity:1;fill-rule:nonzero;stroke:none" d="M0 0c1.279 0 2.252.294 2.252 1.547 0 1.318-.96 1.585-2.599 1.585h-1.16V0Zm-.268 4.198c1.32 0 1.854.414 1.854 1.453 0 1.133-.72 1.492-2.039 1.492h-1.054V4.198Zm-2.677 4.065H-.16c2.185 0 3.185-.92 3.185-2.399 0-1.399-1.039-1.852-1.186-1.959v-.027c.213-.066 1.865-.492 1.865-2.292 0-1.599-.946-2.744-3.465-2.744h-3.184z" transform="matrix(.35278 0 0 -.35278 43.88337329 11.15395081)"/>
    </g>
    <g style="fill:#aab2e3;fill-opacity:1">
      <path style="fill:#aab2e3;fill-opacity:1;fill-rule:nonzero;stroke:none" d="M0 0v1.679l-1.56-.067c-.998-.026-1.573-.479-1.573-1.146 0-.826.481-1.106 1.173-1.106.774 0 1.679.519 1.96.64m-4.491.345c0 1.8 1.626 2.186 2.891 2.201l1.6.025v.813C0 4.397-.534 4.61-1.707 4.61c-.692 0-1.492-.226-1.918-.333l-.28 1.053c.466.2 1.4.48 2.505.48 1.8 0 2.758-.56 2.758-2.052V-.053c0-.453.321-.547.668-.574l-.068-1.079c-.093-.013-.185-.013-.293-.013-.679 0-1.439.24-1.559.879-.399-.279-1.146-.907-2.398-.907-1.386 0-2.199.72-2.199 2.092" transform="matrix(.35278 0 0 -.35278 47.26710329 10.98441081)"/>
    </g>
    <g style="fill:#aab2e3;fill-opacity:1">
      <path style="fill:#aab2e3;fill-opacity:1;fill-rule:nonzero;stroke:none" d="M0 0h1.386v-.8c.613.427 1.453.986 2.492.986 2.185 0 2.32-1.439 2.32-2.811v-4.651H4.824v4.451c0 1.185-.187 1.798-1.36 1.798-.785 0-1.557-.453-2.078-.759v-5.49H0Z" transform="matrix(.35278 0 0 -.35278 48.59147329 8.99584081)"/>
    </g>
    <g style="fill:#aab2e3;fill-opacity:1">
      <path style="fill:#aab2e3;fill-opacity:1;fill-rule:nonzero;stroke:none" d="m0 0-1.999 2.559L.933 6.024h1.559L-.48 2.639.88.986C1.504.24 2.106-.173 2.677-.332l-.225-1.041C1.758-1.332.933-1.199 0 0m-3.424 8.795h1.385V-1.252h-1.385z" transform="matrix(.35278 0 0 -.35278 52.74786329 11.12097081)"/>
    </g>
  </g>
</svg>
