<?xml version="1.0" encoding="UTF-8"?><svg id="Lag_1" xmlns="http://www.w3.org/2000/svg" width="40" height="39" viewBox="0 0 40 39"><polygon points="7.4 34.85 32.6 34.85 32.6 32.31 7.4 32.31 7.4 34.85" fill="#d4a139" fill-rule="evenodd"/><path d="M16.13,27.24c0,1.33-1.09,2.41-2.43,2.41s-2.42-1.08-2.42-2.41,1.08-2.4,2.42-2.4,2.43,1.07,2.43,2.4m12.6,0c0,1.33-1.08,2.41-2.43,2.41s-2.42-1.08-2.42-2.41,1.08-2.4,2.42-2.4,2.43,1.07,2.43,2.4" fill="#d4a139" fill-rule="evenodd"/><path d="M28.73,27.24c0,1.33-1.08,2.41-2.43,2.41s-2.42-1.08-2.42-2.41,1.08-2.4,2.42-2.4,2.43,1.07,2.43,2.4m6.3,0c0,1.33-1.08,2.41-2.43,2.41s-2.42-1.08-2.42-2.41,1.08-2.4,2.42-2.4,2.43,1.07,2.43,2.4m-30.06,0c0,1.33,1.09,2.41,2.43,2.41s2.42-1.08,2.42-2.41-1.08-2.4-2.42-2.4-2.43,1.07-2.43,2.4M23.14,3.83v-1.59h-2.34V0h-1.6V2.24h-2.35v1.59h2.35v2.43c-1.31,.35-2.27,1.52-2.27,2.93,0,1.68,1.37,3.04,3.06,3.04s3.06-1.36,3.06-3.04c0-1.39-.95-2.56-2.24-2.92V3.83h2.34Z" fill="#d4a139" fill-rule="evenodd"/><polygon points="7.4 39 32.6 39 32.6 36.46 7.4 36.46 7.4 39" fill="#d4a139" fill-rule="evenodd"/><path d="M22.42,27.24c0,1.33-1.08,2.41-2.42,2.41s-2.42-1.08-2.42-2.41,1.08-2.4,2.42-2.4,2.42,1.07,2.42,2.4" fill="#d4a139" fill-rule="evenodd"/><path d="M38.83,15.9c-1.7-1.61-4.66-1.61-7.74-.73-.06-.4-.16-.77-.33-1.11-.42-.84-1.37-1.88-3.49-2.07-2.32-.2-5.38,1.07-7.28,2.83-1.9-1.76-4.95-3.03-7.27-2.83-2.12,.19-3.07,1.23-3.49,2.07-.16,.34-.26,.71-.32,1.11-3.08-.89-6.04-.89-7.74,.73-.78,.73-1.18,1.66-1.17,2.67,.03,2.15,1.94,4.37,4.36,6.65,.13-.19,.28-.37,.45-.54,.57-.57,1.3-.92,2.09-1.03-2.01-1.87-3.99-3.9-4.01-5.12,0-.18,.04-.34,.27-.56,.93-.88,3.39-.67,6.06,.31,.48,1.61,1.39,3.5,2.77,5.75,.52-.27,1.1-.41,1.71-.41s1.15,.14,1.64,.38c-.33-.55-.54-.91-.54-.91-2.62-4.14-3.08-6.19-3.08-7.11,0-.36,.07-.56,.11-.64,.14-.27,.53-.43,1.15-.49,1.76-.16,4.53,1.21,5.58,2.67v6.39c.45-.19,.94-.29,1.44-.29s1,.1,1.45,.29v-6.39c1.05-1.45,3.82-2.82,5.58-2.67,.63,.06,1.01,.22,1.15,.49,.04,.08,.11,.28,.11,.64,0,.93-.46,2.97-3.08,7.11,0,0-.22,.36-.55,.91,.49-.25,1.05-.38,1.64-.38s1.19,.14,1.7,.41c1.38-2.25,2.29-4.14,2.77-5.75,2.68-.99,5.14-1.19,6.07-.31,.22,.22,.27,.38,.27,.56-.02,1.22-2,3.25-4.01,5.12,.79,.11,1.52,.46,2.09,1.03,.17,.17,.32,.35,.45,.54,2.42-2.28,4.33-4.5,4.36-6.65,.01-1.01-.39-1.93-1.17-2.67" fill="#d4a139" fill-rule="evenodd"/></svg>